<?xml version="1.0" standalone="no"?>
<!DOCTYPE svg PUBLIC "-//W3C//DTD SVG 20010904//EN"
 "http://www.w3.org/TR/2001/REC-SVG-20010904/DTD/svg10.dtd">
<svg version="1.0" xmlns="http://www.w3.org/2000/svg"
 width="256.000000pt" height="256.000000pt" viewBox="0 0 256.000000 256.000000"
 preserveAspectRatio="xMidYMid meet">
<metadata>
Created by potrace 1.11, written by Peter Selinger 2001-2013
</metadata>
<g transform="translate(0.000000,256.000000) scale(0.100000,-0.100000)"
fill="#000000" stroke="none">
<path d="M407 2453 c-10 -9 -8 -2305 1 -2321 7 -10 190 -12 883 -10 l874 3 0
1165 0 1165 -876 3 c-481 1 -879 -1 -882 -5z m1723 -1163 l0 -1130 -839 0
-838 0 -7 53 c-3 28 -6 537 -6 1130 l0 1077 845 0 845 0 0 -1130z"/>
<path d="M1273 2233 l-673 -3 0 -465 0 -465 654 0 c359 0 674 -3 700 -6 l46
-7 -2 474 -3 474 -25 0 c-14 0 -328 -1 -697 -2z"/>
<path d="M520 1205 c0 -13 44 -15 335 -15 291 0 335 2 335 15 0 13 -44 15
-335 15 -291 0 -335 -2 -335 -15z"/>
<path d="M1670 988 c-16 -17 -20 -35 -20 -83 0 -86 21 -105 114 -105 37 0 76
5 86 10 26 14 44 79 36 125 -12 61 -35 75 -121 75 -63 0 -77 -3 -95 -22z"/>
<path d="M780 930 l0 -60 -65 0 -65 0 0 -70 0 -70 65 0 65 0 0 -65 0 -65 80 0
80 0 0 65 0 65 70 0 70 0 0 70 0 70 -70 0 -70 0 0 60 0 60 -80 0 -80 0 0 -60z"/>
<path d="M1943 945 c0 -22 2 -30 4 -17 2 12 2 30 0 40 -3 9 -5 -1 -4 -23z"/>
<path d="M1465 808 c-36 -19 -45 -41 -45 -103 0 -86 21 -105 116 -105 97 0
114 16 114 110 0 62 -2 70 -26 89 -30 24 -123 29 -159 9z"/>
<path d="M1950 539 c0 -19 126 -144 133 -132 3 5 -25 41 -63 78 -39 38 -70 63
-70 54z"/>
<path d="M1940 464 c0 -26 85 -110 95 -94 5 8 -12 32 -44 63 -41 42 -51 48
-51 31z"/>
<path d="M1940 389 c0 -20 46 -63 54 -51 3 5 -8 22 -24 37 -21 20 -30 24 -30
14z"/>
<path d="M1940 304 c0 -8 5 -12 10 -9 6 4 8 11 5 16 -9 14 -15 11 -15 -7z"/>
</g>
</svg>
